<svg width="301" height="205" viewBox="0 0 301 205" fill="none" xmlns="http://www.w3.org/2000/svg">
<g clip-path="url(#clip0_8_34)">
<path d="M197.96 80.6C184.06 66.97 165.02 58.58 144.02 58.58C142.37 58.58 140.74 58.63 139.12 58.74H139.08C109.61 60.6 84.6298 79.01 73.3498 104.78C72.5598 106.58 71.8398 108.4 71.1898 110.27C70.3098 112.79 78.4598 112.35 83.9198 110.88C83.9198 110.88 83.9231 110.88 83.9298 110.88C87.7598 109.85 91.7998 109.3 95.9598 109.3C96.3898 109.3 96.7998 109.3 97.2298 109.32C97.2298 109.32 97.2498 109.32 97.2598 109.32C99.1998 109.37 101.11 109.54 102.98 109.83H103C105.29 109.48 107.64 109.3 110.02 109.3C111.96 109.3 113.88 109.42 115.77 109.65C117.65 109.41 119.57 109.3 121.51 109.3C123.96 109.3 126.36 109.49 128.71 109.86C131.06 109.49 133.46 109.3 135.91 109.3C138.36 109.3 140.56 109.48 142.81 109.81C145.05 109.48 147.36 109.3 149.7 109.3C151.58 109.3 153.44 109.41 155.26 109.63C157.08 109.41 158.94 109.3 160.82 109.3C163.01 109.3 165.15 109.45 167.25 109.74C169.35 109.44 171.5 109.3 173.68 109.3C176.39 109.3 179.04 109.54 181.63 109.98C184.21 109.53 186.86 109.3 189.57 109.3C201.03 109.3 217.97 113.55 216.83 110.28C212.88 98.95 206.35 88.82 197.96 80.61V80.6ZM130.87 79.29C130.63 79.77 130.04 80.04 129.52 79.89C129.01 79.75 128.63 79.21 128.68 78.68C128.73 78.69 128.78 78.72 128.84 78.73C128.85 78.13 129.47 77.57 130.08 77.67C130.77 77.79 131.2 78.67 130.88 79.29H130.87Z" fill="#FEC931" stroke="#FEC931" stroke-miterlimit="10"/>
<path d="M94.7502 109.11C90.3102 109.56 85.8702 110.08 81.4502 110.67C85.2802 109.64 89.3202 109.09 93.4802 109.09C93.9102 109.09 94.3202 109.09 94.7502 109.11Z" stroke="#FEC931" stroke-miterlimit="10"/>
<path d="M19.65 178.05C16.8 178.05 14.71 177.69 13.37 176.98C12.03 176.27 11.3 174.96 11.18 173.06C10.95 169.85 10.84 166.41 10.84 162.73C10.84 156.58 11.14 150.71 11.74 145.11H10.81C8.97 145.11 6.99 145 4.86 144.77C3.14 144.52 1.9 143.65 1.14 142.15C0.38 140.66 0 138.98 0 137.13C0 135.59 0.21 134.1 0.62 132.64C1.03 131.18 1.6 129.98 2.31 129.03C3.02 128.08 3.82 127.6 4.72 127.6H37.97C38.82 127.6 39.57 128.06 40.22 128.98C40.87 129.9 41.38 131.06 41.75 132.47C42.12 133.88 42.3 135.34 42.3 136.86C42.3 138.95 41.89 140.81 41.08 142.44C40.27 144.07 38.95 144.94 37.14 145.06H35.94C35.27 145.06 33.37 145.03 30.23 144.96V145.65C30.23 147.07 30.26 148.97 30.33 151.33C30.47 154.91 30.54 159.04 30.54 163.72C30.54 166.98 30.47 170.37 30.33 173.91C30.31 175.17 29.43 176.18 27.71 176.94C25.99 177.7 23.3 178.08 19.66 178.08L19.65 178.05Z" fill="#ADD6F1"/>
<path d="M66.5601 178.05C62.3401 178.05 58.6601 177.34 55.5101 175.93C52.3601 174.52 49.7501 172.63 47.6601 170.27C45.5701 167.91 44.0101 165.24 42.9601 162.27C41.9201 159.3 41.3901 156.25 41.3901 153.13C41.3901 150.01 41.9201 146.83 42.9901 143.8C44.0601 140.77 45.6601 138.04 47.7901 135.61C49.9201 133.18 52.5901 131.24 55.7701 129.79C58.9601 128.34 62.6801 127.62 66.9201 127.62C71.1601 127.62 74.9101 128.32 78.0901 129.72C81.2701 131.12 83.9101 133 86.0201 135.35C88.1301 137.7 89.7101 140.36 90.7701 143.32C91.8301 146.28 92.3501 149.32 92.3501 152.44C92.3501 155.56 91.8001 158.74 90.7201 161.78C89.6301 164.82 88.0101 167.56 85.8501 170.01C83.6901 172.45 81.0001 174.4 77.7801 175.86C74.5601 177.32 70.8101 178.05 66.5401 178.05H66.5601ZM67.0801 161.15C68.9801 161.15 70.7001 160.41 72.2301 158.93C73.7601 157.45 74.5501 155.26 74.6201 152.37C74.6201 150.44 74.2901 148.87 73.6201 147.64C72.9501 146.41 72.0901 145.51 71.0401 144.92C69.9801 144.34 68.8601 144.04 67.6701 144.04C65.7201 144.04 63.9501 144.76 62.3501 146.19C60.7501 147.62 59.9101 149.65 59.8201 152.26C59.8201 154.26 60.1701 155.91 60.8701 157.23C61.5701 158.55 62.4801 159.53 63.5901 160.17C64.7001 160.81 65.8701 161.13 67.0801 161.13V161.15Z" fill="#9CCEA6"/>
<path d="M122.6 177.5C118.1 177.5 114.16 176.77 110.76 175.31C107.36 173.85 104.52 171.91 102.22 169.49C99.9298 167.07 98.1998 164.34 97.0398 161.32C95.8798 158.29 95.2998 155.19 95.2998 152.03C95.2998 148.04 96.2598 144.22 98.1698 140.57C100.09 136.92 102.98 133.95 106.86 131.66C110.92 129.27 116.05 128.06 122.24 128.01C125.68 128.01 129.15 128.39 132.65 129.16C136.15 129.93 138.54 131.09 139.83 132.65C140.4 133.52 140.69 134.51 140.69 135.61C140.69 136.96 140.37 138.38 139.74 139.86C139.11 141.34 138.36 142.71 137.49 143.97C136.62 145.23 135.78 146.24 134.98 147C134.45 147.44 133.87 147.65 133.22 147.65C132.72 147.65 132.19 147.55 131.64 147.36C131.09 147.17 130.57 146.95 130.09 146.72C127.15 145.46 124.59 144.83 122.41 144.83C120.6 144.85 119.1 145.2 117.92 145.86C116.74 146.53 115.87 147.39 115.3 148.46C114.74 149.53 114.46 150.66 114.46 151.85C114.46 153.66 115.1 155.32 116.37 156.82C117.64 158.32 119.48 159.12 121.89 159.21C122.95 159.21 123.99 159.1 125.02 158.87C126.05 158.64 127.08 158.38 128.1 158.1C129.12 157.81 130.15 157.56 131.18 157.34C132.21 157.12 133.26 157.01 134.31 157.01C135.55 157.08 136.61 157.79 137.49 159.14C138.37 160.49 139.05 162.14 139.52 164.08C139.99 166.02 140.23 167.8 140.23 169.43C140.23 170.16 140.17 170.78 140.06 171.29C139.49 173.24 137.79 174.62 134.97 175.42C130.98 176.75 126.85 177.44 122.58 177.48L122.6 177.5Z" fill="#FEC931"/>
<path d="M179.11 178.05C176.26 178.05 174.17 177.69 172.83 176.98C171.49 176.27 170.76 174.96 170.64 173.06C170.41 169.85 170.3 166.41 170.3 162.73C170.3 156.58 170.6 150.71 171.2 145.11H170.27C168.43 145.11 166.45 145 164.32 144.77C162.6 144.52 161.36 143.65 160.6 142.15C159.84 140.66 159.46 138.98 159.46 137.13C159.46 135.59 159.67 134.1 160.08 132.64C160.49 131.18 161.06 129.98 161.77 129.03C162.48 128.08 163.28 127.6 164.18 127.6H197.43C198.28 127.6 199.03 128.06 199.68 128.98C200.33 129.9 200.84 131.06 201.21 132.47C201.58 133.88 201.76 135.34 201.76 136.86C201.76 138.95 201.35 140.81 200.54 142.44C199.73 144.07 198.41 144.94 196.6 145.06H195.4C194.73 145.06 192.83 145.03 189.69 144.96V145.65C189.69 147.07 189.72 148.97 189.79 151.33C189.93 154.91 190 159.04 190 163.72C190 166.98 189.93 170.37 189.79 173.91C189.77 175.17 188.89 176.18 187.17 176.94C185.45 177.7 182.76 178.08 179.12 178.08L179.11 178.05Z" fill="#F5A325"/>
<path d="M226.02 178.05C221.8 178.05 218.12 177.34 214.97 175.93C211.82 174.52 209.21 172.63 207.12 170.27C205.03 167.91 203.47 165.24 202.42 162.27C201.38 159.3 200.85 156.25 200.85 153.13C200.85 150.01 201.38 146.83 202.45 143.8C203.52 140.77 205.12 138.04 207.25 135.61C209.38 133.18 212.05 131.24 215.23 129.79C218.42 128.34 222.14 127.62 226.38 127.62C230.62 127.62 234.37 128.32 237.55 129.72C240.73 131.12 243.37 133 245.48 135.35C247.59 137.7 249.17 140.36 250.23 143.32C251.29 146.28 251.81 149.32 251.81 152.44C251.81 155.56 251.26 158.74 250.18 161.78C249.09 164.82 247.47 167.56 245.31 170.01C243.15 172.45 240.46 174.4 237.24 175.86C234.02 177.32 230.27 178.05 226 178.05H226.02ZM226.54 161.15C228.44 161.15 230.16 160.41 231.69 158.93C233.22 157.45 234.01 155.26 234.08 152.37C234.08 150.44 233.75 148.87 233.08 147.64C232.41 146.41 231.55 145.51 230.5 144.92C229.44 144.34 228.32 144.04 227.13 144.04C225.18 144.04 223.41 144.76 221.81 146.19C220.21 147.62 219.37 149.65 219.28 152.26C219.28 154.26 219.63 155.91 220.33 157.23C221.03 158.55 221.94 159.53 223.05 160.17C224.16 160.81 225.33 161.13 226.54 161.13V161.15Z" fill="#ADD6F1"/>
<path d="M282.05 177.5C277.55 177.5 273.61 176.77 270.21 175.31C266.81 173.85 263.97 171.91 261.67 169.49C259.38 167.07 257.65 164.34 256.49 161.32C255.33 158.29 254.75 155.19 254.75 152.03C254.75 148.04 255.71 144.22 257.62 140.57C259.54 136.92 262.43 133.95 266.31 131.66C270.37 129.27 275.5 128.06 281.69 128.01C285.13 128.01 288.6 128.39 292.1 129.16C295.6 129.93 297.99 131.09 299.28 132.65C299.85 133.52 300.14 134.51 300.14 135.61C300.14 136.96 299.82 138.38 299.19 139.86C298.56 141.34 297.81 142.71 296.94 143.97C296.07 145.23 295.23 146.24 294.43 147C293.9 147.44 293.32 147.65 292.67 147.65C292.17 147.65 291.64 147.55 291.09 147.36C290.54 147.17 290.02 146.95 289.54 146.72C286.6 145.46 284.04 144.83 281.86 144.83C280.05 144.85 278.55 145.2 277.37 145.86C276.19 146.53 275.32 147.39 274.75 148.46C274.19 149.53 273.91 150.66 273.91 151.85C273.91 153.66 274.55 155.32 275.82 156.82C277.09 158.32 278.93 159.12 281.34 159.21C282.4 159.21 283.44 159.1 284.47 158.87C285.5 158.64 286.53 158.38 287.55 158.1C288.57 157.81 289.6 157.56 290.63 157.34C291.66 157.12 292.71 157.01 293.76 157.01C295 157.08 296.06 157.79 296.94 159.14C297.82 160.49 298.5 162.14 298.97 164.08C299.44 166.02 299.68 167.8 299.68 169.43C299.68 170.16 299.62 170.78 299.51 171.29C298.94 173.24 297.24 174.62 294.42 175.42C290.43 176.75 286.3 177.44 282.03 177.48L282.05 177.5Z" fill="#9CCEA6"/>
<path d="M20.4299 202.29C19.4399 202.29 18.5699 202.17 17.8299 201.94C16.9799 201.69 16.4699 201.26 16.3199 200.66C16.1599 199.87 16.0399 198.94 15.9699 197.87C15.8999 196.8 15.8599 195.74 15.8599 194.67C15.8599 192.38 15.9699 191.02 16.1999 190.59C16.3199 190.37 16.4999 190.21 16.7499 190.11C17.1999 189.95 17.7699 189.83 18.4599 189.73C19.1499 189.63 19.8799 189.59 20.6599 189.59C21.7199 189.59 22.7399 189.7 23.7199 189.92C24.6999 190.14 25.5099 190.51 26.1299 191.04C26.7499 191.57 27.0799 192.28 27.1199 193.19C27.1199 193.8 26.9699 194.31 26.6799 194.72C26.3899 195.14 25.9799 195.49 25.4599 195.78C25.8599 195.94 26.2299 196.14 26.5699 196.38C26.9099 196.62 27.1899 196.9 27.3999 197.23C27.6099 197.56 27.7199 197.96 27.7199 198.41C27.6899 199.18 27.4099 199.82 26.9099 200.33C26.3999 200.83 25.7599 201.23 24.9999 201.52C24.2299 201.81 23.4399 202.01 22.6199 202.12C21.7999 202.24 21.0799 202.29 20.4499 202.29H20.4299ZM20.9799 194.47C21.3699 194.44 21.6599 194.34 21.8499 194.16C22.0399 193.98 22.1399 193.78 22.1399 193.56C22.1399 193.34 22.0399 193.13 21.8399 192.94C21.6399 192.75 21.3399 192.64 20.9399 192.61V193.08C20.9399 193.55 20.9399 194.01 20.9699 194.47H20.9799ZM21.0999 198.79C21.4799 198.74 21.7699 198.64 21.9599 198.48C22.1499 198.32 22.2499 198.14 22.2499 197.95C22.2499 197.76 22.1499 197.58 21.9599 197.41C21.7599 197.24 21.4699 197.13 21.0699 197.08V197.79C21.0699 198.14 21.0699 198.47 21.0999 198.79Z" fill="#ADD6F1"/>
<path d="M31.1699 202.02C30.7799 202.02 30.3999 201.96 30.0299 201.85C29.6599 201.74 29.3599 201.56 29.1199 201.32C28.8799 201.08 28.7399 200.77 28.7099 200.4C28.5199 197.82 28.4199 195.65 28.4199 193.9C28.4199 192.92 28.4699 192.18 28.5699 191.69C28.6899 191.34 29.0099 191.07 29.5299 190.86C30.0599 190.65 30.6199 190.54 31.2199 190.54C31.7499 190.54 32.2299 190.64 32.6499 190.85C33.0699 191.05 33.3199 191.39 33.3899 191.85C33.4399 192.33 33.4799 192.72 33.4899 193.01C33.6499 192.45 33.8899 191.99 34.2099 191.64C34.5299 191.29 34.8999 191.02 35.2999 190.86C35.6999 190.7 36.1199 190.61 36.5399 190.61C37.1699 190.61 37.7299 190.79 38.2099 191.14C38.6899 191.49 38.9399 191.98 38.9699 192.61C38.9699 193.15 38.8199 193.7 38.5099 194.27C38.1999 194.84 37.8199 195.32 37.3699 195.71C36.9199 196.1 36.4699 196.3 36.0199 196.3C35.5699 196.3 35.2099 196.08 34.9099 195.64C34.7599 195.44 34.5599 195.35 34.3199 195.35C34.1899 195.35 34.0699 195.39 33.9399 195.46C33.8199 195.54 33.7099 195.66 33.6399 195.83C33.5599 196 33.5199 196.24 33.5199 196.53V196.68C33.5499 197.28 33.5699 197.92 33.5899 198.61L33.6199 200.64C33.6199 200.93 33.4999 201.18 33.2599 201.38C33.0199 201.59 32.7099 201.75 32.3299 201.86C31.9499 201.97 31.5599 202.02 31.1399 202.02H31.1699Z" fill="#ADD6F1"/>
<path d="M41.5 193.22C40.72 193.04 40.1 192.7 39.64 192.18C39.19 191.67 38.96 191.18 38.96 190.73C38.96 190.44 39.05 190.21 39.24 190.03C39.42 189.85 39.72 189.75 40.11 189.74C40.33 189.74 40.55 189.81 40.78 189.95C41.01 190.09 41.21 190.31 41.4 190.62C41.89 189.84 42.46 189.45 43.12 189.45C43.49 189.45 43.77 189.55 43.95 189.74C44.13 189.93 44.23 190.17 44.23 190.45C44.23 190.76 44.13 191.09 43.92 191.45C43.72 191.81 43.41 192.15 43.01 192.46C42.61 192.78 42.1 193.03 41.5 193.23V193.22ZM41.34 202.07C40.68 202.07 40.19 201.98 39.88 201.8C39.57 201.62 39.4 201.29 39.37 200.82C39.31 200 39.28 199.12 39.28 198.18C39.28 196.95 39.33 195.74 39.42 194.56C39.44 194.37 39.63 194.2 40 194.06C40.37 193.92 40.9 193.84 41.61 193.84C42.32 193.84 42.86 193.9 43.24 194.03C43.62 194.15 43.82 194.34 43.82 194.58L43.84 195.47C43.87 196.36 43.88 197.37 43.88 198.51C43.88 199.31 43.87 200.15 43.84 201.02C43.84 201.34 43.63 201.6 43.23 201.79C42.83 201.98 42.2 202.08 41.35 202.08L41.34 202.07Z" fill="#ADD6F1"/>
<path d="M47.7798 202.02C47.3898 202.02 47.0098 201.96 46.6398 201.85C46.2698 201.74 45.9698 201.56 45.7298 201.32C45.4898 201.08 45.3498 200.77 45.3198 200.4C45.1298 197.84 45.0298 195.69 45.0298 193.95C45.0298 192.95 45.0798 192.19 45.1898 191.69C45.3098 191.34 45.6298 191.07 46.1498 190.86C46.6798 190.65 47.2398 190.54 47.8298 190.54C48.3698 190.54 48.8498 190.64 49.2698 190.85C49.6898 191.05 49.9398 191.39 50.0098 191.85C50.0598 192.33 50.0998 192.72 50.1098 193.01C50.2298 192.71 50.4198 192.41 50.6898 192.11C50.9598 191.81 51.2698 191.55 51.6098 191.34C51.9498 191.13 52.2898 191.02 52.6098 191.02C53.9298 191.06 54.8498 191.84 55.3698 193.35C55.7698 194.5 55.9698 195.98 55.9698 197.81C55.9698 198.64 55.9498 199.35 55.8998 199.96L55.8798 200.41C55.8598 201 55.6898 201.41 55.3598 201.63C55.0298 201.86 54.4698 201.97 53.6798 201.97C53.2798 201.97 52.9298 201.94 52.6198 201.88C52.3098 201.82 52.0598 201.69 51.8798 201.48C51.6998 201.27 51.5998 200.96 51.5798 200.54C51.5498 199.09 51.5198 197.75 51.5098 196.52C51.4998 196.22 51.4298 196 51.3098 195.86C51.1898 195.72 51.0498 195.65 50.8898 195.65C50.7098 195.65 50.5398 195.73 50.3898 195.89C50.2398 196.05 50.1598 196.28 50.1598 196.57V196.66C50.2198 197.82 50.2498 198.99 50.2598 200.16V200.63C50.2598 200.92 50.1498 201.17 49.9098 201.37C49.6698 201.58 49.3598 201.74 48.9798 201.85C48.5998 201.96 48.2098 202.01 47.7898 202.01L47.7798 202.02Z" fill="#ADD6F1"/>
<path d="M62.5501 201.87C61.1901 201.85 60.0801 201.58 59.2001 201.07C58.3201 200.56 57.6701 199.89 57.2401 199.06C56.8201 198.23 56.6001 197.35 56.6001 196.42C56.6001 195.68 56.7301 194.94 57.0001 194.22C57.2701 193.5 57.6501 192.85 58.1701 192.27C58.6801 191.69 59.3201 191.23 60.0701 190.88C60.8201 190.53 61.6901 190.36 62.6601 190.36C63.9101 190.36 64.9901 190.71 65.9101 191.4C66.0701 191.54 66.1501 191.74 66.1501 192C66.1501 192.35 66.0301 192.75 65.7801 193.2C65.5301 193.65 65.2401 194.04 64.8801 194.37C64.5301 194.7 64.1801 194.87 63.8501 194.87C63.7201 194.87 63.6001 194.84 63.5001 194.78C63.0401 194.54 62.6301 194.42 62.2501 194.42C61.7101 194.44 61.2901 194.61 61.0001 194.93C60.7101 195.25 60.5601 195.62 60.5601 196.04C60.5601 196.36 60.6601 196.66 60.8601 196.93C61.1801 197.36 61.7501 197.57 62.5501 197.57C62.9201 197.57 63.3001 197.54 63.6801 197.48C64.0701 197.42 64.4501 197.38 64.8301 197.37C65.0701 197.37 65.2701 197.45 65.4301 197.61C65.5901 197.77 65.7101 197.99 65.7901 198.25C65.8701 198.52 65.9101 198.8 65.9101 199.11C65.9101 199.63 65.7901 200.14 65.5601 200.64C65.3301 201.13 64.9701 201.46 64.5001 201.61C63.8401 201.79 63.1901 201.88 62.5501 201.88V201.87Z" fill="#ADD6F1"/>
<path d="M74.85 201.97C74.39 201.97 73.97 201.92 73.59 201.82C73.21 201.72 72.97 201.57 72.88 201.37C72.85 201.24 72.83 201.11 72.82 200.98V200.84C71.96 201.42 70.99 201.72 69.91 201.73C69.15 201.73 68.51 201.56 68 201.23C67.49 200.9 67.11 200.46 66.85 199.94C66.59 199.42 66.46 198.86 66.46 198.28C66.46 197.74 66.57 197.21 66.8 196.71C67.03 196.21 67.37 195.78 67.83 195.43C68.44 194.97 69.27 194.74 70.31 194.74C70.89 194.74 71.45 194.8 71.99 194.93C71.67 194.6 71.33 194.36 70.98 194.22C70.63 194.08 70.26 194.01 69.89 194.01C69.41 194.01 68.89 194.09 68.36 194.25C68.26 194.27 68.17 194.28 68.08 194.28C67.83 194.28 67.61 194.19 67.44 194.01C67.27 193.83 67.14 193.6 67.05 193.32C66.96 193.04 66.92 192.75 66.92 192.46C66.92 192.11 66.98 191.8 67.09 191.52C67.2 191.24 67.38 191.06 67.61 190.97C68.94 190.55 70.13 190.35 71.16 190.35C73.13 190.35 74.6 191.06 75.58 192.47C76.5 193.79 76.96 195.65 76.96 198.05C76.96 199.08 76.87 200.19 76.7 201.37C76.64 201.57 76.42 201.71 76.06 201.82C75.69 201.92 75.29 201.97 74.84 201.97H74.85ZM71.44 198.43C71.76 198.43 72.19 198.33 72.72 198.14C72.7 197.44 72.69 197.01 72.69 196.85C72.56 196.83 72.43 196.82 72.31 196.82C71.96 196.82 71.66 196.88 71.41 196.99C71.16 197.1 70.97 197.24 70.83 197.41C70.7 197.57 70.63 197.73 70.63 197.89C70.63 198.03 70.69 198.16 70.82 198.27C70.95 198.38 71.15 198.43 71.43 198.43H71.44Z" fill="#ADD6F1"/>
<path d="M80.6699 202.02C80.2799 202.02 79.8999 201.96 79.5299 201.85C79.1599 201.74 78.8599 201.56 78.6199 201.32C78.3799 201.08 78.2399 200.77 78.2099 200.4C78.0199 197.82 77.9199 195.65 77.9199 193.9C77.9199 192.92 77.9699 192.18 78.0699 191.69C78.1899 191.34 78.5099 191.07 79.0299 190.86C79.5599 190.65 80.1199 190.54 80.7199 190.54C81.2499 190.54 81.7299 190.64 82.1499 190.85C82.5699 191.05 82.8199 191.39 82.8899 191.85C82.9399 192.33 82.9799 192.72 82.9899 193.01C83.1499 192.45 83.3899 191.99 83.7099 191.64C84.0299 191.29 84.3999 191.02 84.7999 190.86C85.1999 190.7 85.6199 190.61 86.0399 190.61C86.6699 190.61 87.2299 190.79 87.7099 191.14C88.1899 191.49 88.4399 191.98 88.4699 192.61C88.4699 193.15 88.3199 193.7 88.0099 194.27C87.6999 194.84 87.3199 195.32 86.8699 195.71C86.4199 196.1 85.9699 196.3 85.5199 196.3C85.0699 196.3 84.7099 196.08 84.4099 195.64C84.2599 195.44 84.0599 195.35 83.8199 195.35C83.6899 195.35 83.5699 195.39 83.4399 195.46C83.3199 195.54 83.2099 195.66 83.1399 195.83C83.0599 196 83.0199 196.24 83.0199 196.53V196.68C83.0499 197.28 83.0699 197.92 83.0899 198.61L83.1199 200.64C83.1199 200.93 82.9999 201.18 82.7599 201.38C82.5199 201.59 82.2099 201.75 81.8299 201.86C81.4499 201.97 81.0599 202.02 80.6399 202.02H80.6699Z" fill="#ADD6F1"/>
<path d="M99.0599 201.87C97.6999 201.85 96.5899 201.58 95.7099 201.07C94.8299 200.56 94.1799 199.89 93.7499 199.06C93.3299 198.23 93.1099 197.35 93.1099 196.42C93.1099 195.68 93.2399 194.94 93.5099 194.22C93.7799 193.5 94.1599 192.85 94.6799 192.27C95.1899 191.69 95.8299 191.23 96.5799 190.88C97.3299 190.53 98.1999 190.36 99.1699 190.36C100.42 190.36 101.5 190.71 102.42 191.4C102.58 191.54 102.66 191.74 102.66 192C102.66 192.35 102.54 192.75 102.29 193.2C102.04 193.65 101.75 194.04 101.39 194.37C101.04 194.7 100.69 194.87 100.36 194.87C100.23 194.87 100.11 194.84 100.01 194.78C99.5499 194.54 99.1399 194.42 98.7599 194.42C98.2199 194.44 97.7999 194.61 97.5099 194.93C97.2199 195.25 97.0699 195.62 97.0699 196.04C97.0699 196.36 97.1699 196.66 97.3699 196.93C97.6899 197.36 98.2599 197.57 99.0599 197.57C99.4299 197.57 99.8099 197.54 100.19 197.48C100.58 197.42 100.96 197.38 101.34 197.37C101.58 197.37 101.78 197.45 101.94 197.61C102.1 197.77 102.22 197.99 102.3 198.25C102.38 198.52 102.42 198.8 102.42 199.11C102.42 199.63 102.3 200.14 102.07 200.64C101.84 201.13 101.48 201.46 101.01 201.61C100.35 201.79 99.6999 201.88 99.0599 201.88V201.87Z" fill="#F3987D"/>
<path d="M107.92 201.97C107.04 201.97 106.28 201.81 105.62 201.48C104.97 201.15 104.42 200.72 103.98 200.16C103.54 199.61 103.22 198.99 103 198.3C102.78 197.61 102.68 196.91 102.68 196.18C102.68 195.45 102.79 194.74 103.01 194.05C103.23 193.36 103.56 192.73 103.99 192.18C104.43 191.63 104.97 191.18 105.63 190.86C106.28 190.53 107.05 190.37 107.92 190.37C108.79 190.37 109.58 190.53 110.24 190.86C110.9 191.19 111.45 191.62 111.89 192.17C112.33 192.71 112.66 193.33 112.88 194.02C113.1 194.71 113.21 195.41 113.21 196.13C113.21 196.85 113.1 197.57 112.88 198.26C112.66 198.96 112.33 199.58 111.88 200.14C111.44 200.7 110.89 201.14 110.23 201.47C109.57 201.8 108.8 201.97 107.92 201.97ZM107.93 198.02C108.32 198.02 108.67 197.84 108.98 197.49C109.29 197.14 109.46 196.62 109.48 195.94C109.48 195.47 109.41 195.09 109.27 194.78C109.13 194.47 108.95 194.24 108.73 194.09C108.51 193.94 108.28 193.86 108.03 193.86C107.65 193.86 107.31 194.04 107 194.4C106.69 194.76 106.53 195.31 106.51 196.04C106.51 196.48 106.58 196.85 106.71 197.15C106.85 197.44 107.02 197.66 107.23 197.81C107.44 197.96 107.67 198.03 107.91 198.03L107.93 198.02Z" fill="#F3987D"/>
<path d="M116.69 202.02C116.31 202.02 115.94 201.96 115.59 201.85C115.24 201.74 114.95 201.56 114.72 201.32C114.49 201.08 114.36 200.77 114.33 200.4C114.15 197.77 114.06 195.6 114.06 193.9C114.06 192.92 114.11 192.18 114.2 191.69C114.31 191.34 114.62 191.07 115.13 190.86C115.64 190.65 116.18 190.54 116.75 190.54C117.26 190.54 117.72 190.64 118.13 190.85C118.54 191.06 118.77 191.39 118.83 191.85C118.88 192.33 118.92 192.72 118.93 193.01C119.04 192.71 119.22 192.41 119.48 192.11C119.74 191.81 120.03 191.55 120.36 191.34C120.69 191.13 121.01 191.02 121.31 191.02C121.95 191.04 122.48 191.24 122.89 191.62C123.31 192 123.63 192.47 123.85 193.06C124.26 192.48 124.72 192 125.23 191.61C125.74 191.22 126.18 191.03 126.54 191.03C127.8 191.07 128.67 191.85 129.17 193.37C129.55 194.52 129.74 196 129.74 197.8C129.74 198.64 129.72 199.38 129.67 200L129.65 200.42C129.64 201.01 129.47 201.42 129.16 201.64C128.85 201.86 128.31 201.98 127.55 201.98C127.17 201.98 126.84 201.95 126.54 201.89C126.24 201.83 126 201.7 125.83 201.49C125.66 201.28 125.56 200.97 125.54 200.55C125.49 199.13 125.47 197.79 125.47 196.53C125.47 196.22 125.41 195.97 125.28 195.79C125.15 195.61 125.01 195.52 124.86 195.52C124.72 195.52 124.6 195.61 124.48 195.78C124.37 195.96 124.31 196.24 124.31 196.62C124.32 197.24 124.34 197.81 124.37 198.34C124.41 198.93 124.43 199.47 124.43 199.98V200.4C124.41 200.99 124.24 201.4 123.93 201.62C123.61 201.85 123.08 201.96 122.32 201.96C121.94 201.96 121.61 201.93 121.31 201.87C121.01 201.81 120.77 201.68 120.6 201.47C120.43 201.26 120.33 200.95 120.31 200.53C120.28 199.45 120.25 198.11 120.24 196.51C120.23 196.21 120.16 195.99 120.05 195.85C119.93 195.71 119.8 195.64 119.65 195.64C119.48 195.64 119.32 195.72 119.17 195.88C119.02 196.04 118.95 196.27 118.95 196.56V196.65C119 197.71 119.03 198.8 119.04 199.92V200.61C119.04 200.9 118.93 201.15 118.7 201.35C118.47 201.56 118.17 201.72 117.81 201.83C117.45 201.94 117.07 201.99 116.68 201.99L116.69 202.02Z" fill="#F3987D"/>
<path d="M137.99 204.05C137.59 204.05 137.21 203.99 136.85 203.88C136.49 203.77 136.18 203.59 135.95 203.35C135.71 203.11 135.57 202.8 135.54 202.43C135.49 201.74 135.42 200.49 135.33 198.68C135.24 196.87 135.2 195.24 135.2 193.78C135.2 192.68 135.24 191.91 135.33 191.45C135.44 191.12 135.74 190.85 136.23 190.66C136.72 190.47 137.26 190.37 137.84 190.37C138.31 190.37 138.74 190.44 139.15 190.59C139.56 190.74 139.85 190.98 140.02 191.3V191.27C140.59 190.68 141.3 190.38 142.15 190.38C142.76 190.38 143.3 190.51 143.78 190.78C144.25 191.05 144.66 191.4 145 191.85C145.34 192.3 145.6 192.8 145.77 193.35C145.94 193.9 146.04 194.47 146.04 195.04C146.04 195.58 145.96 196.1 145.79 196.6C145.62 197.1 145.36 197.55 145 197.95C144.65 198.35 144.19 198.67 143.64 198.9C143.09 199.14 142.42 199.25 141.64 199.25C141.25 199.25 140.84 199.22 140.39 199.15C140.42 200.4 140.46 201.56 140.5 202.63C140.5 202.94 140.38 203.19 140.14 203.4C139.9 203.61 139.59 203.77 139.21 203.88C138.83 203.99 138.44 204.05 138.02 204.05H137.99ZM140.85 196.58C141.13 196.58 141.35 196.52 141.53 196.39C141.71 196.26 141.84 196.09 141.92 195.89C142 195.69 142.05 195.48 142.05 195.26C142.05 194.96 141.97 194.69 141.82 194.45C141.67 194.21 141.46 194.09 141.19 194.09C140.92 194.09 140.61 194.24 140.24 194.55L140.29 196.5C140.5 196.56 140.69 196.59 140.85 196.59V196.58Z" fill="#F5A325"/>
<path d="M149.55 202.02C149.16 202.02 148.78 201.96 148.41 201.85C148.04 201.74 147.74 201.56 147.5 201.32C147.26 201.08 147.12 200.77 147.09 200.4C146.9 197.82 146.8 195.65 146.8 193.9C146.8 192.92 146.85 192.18 146.95 191.69C147.07 191.34 147.39 191.07 147.91 190.86C148.44 190.65 149 190.54 149.6 190.54C150.13 190.54 150.61 190.64 151.03 190.85C151.45 191.05 151.7 191.39 151.77 191.85C151.82 192.33 151.86 192.72 151.87 193.01C152.03 192.45 152.27 191.99 152.59 191.64C152.91 191.29 153.28 191.02 153.68 190.86C154.08 190.7 154.5 190.61 154.92 190.61C155.55 190.61 156.11 190.79 156.59 191.14C157.07 191.49 157.32 191.98 157.35 192.61C157.35 193.15 157.2 193.7 156.89 194.27C156.58 194.84 156.2 195.32 155.75 195.71C155.3 196.1 154.85 196.3 154.4 196.3C153.95 196.3 153.59 196.08 153.29 195.64C153.14 195.44 152.94 195.35 152.7 195.35C152.57 195.35 152.45 195.39 152.32 195.46C152.2 195.54 152.09 195.66 152.02 195.83C151.94 196 151.9 196.24 151.9 196.53V196.68C151.93 197.28 151.95 197.92 151.97 198.61L152 200.64C152 200.93 151.88 201.18 151.64 201.38C151.4 201.59 151.09 201.75 150.71 201.86C150.33 201.97 149.94 202.02 149.52 202.02H149.55Z" fill="#F5A325"/>
<path d="M162.58 201.97C161.7 201.97 160.94 201.81 160.28 201.48C159.63 201.15 159.08 200.72 158.64 200.16C158.2 199.61 157.88 198.99 157.66 198.3C157.44 197.61 157.34 196.91 157.34 196.18C157.34 195.45 157.45 194.74 157.67 194.05C157.89 193.36 158.22 192.73 158.65 192.18C159.09 191.63 159.63 191.18 160.29 190.86C160.94 190.53 161.71 190.37 162.58 190.37C163.45 190.37 164.24 190.53 164.9 190.86C165.56 191.19 166.11 191.62 166.55 192.17C166.99 192.71 167.32 193.33 167.54 194.02C167.76 194.71 167.87 195.41 167.87 196.13C167.87 196.85 167.76 197.57 167.54 198.26C167.32 198.96 166.99 199.58 166.54 200.14C166.1 200.7 165.55 201.14 164.89 201.47C164.23 201.8 163.46 201.97 162.58 201.97ZM162.6 198.02C162.99 198.02 163.34 197.84 163.65 197.49C163.96 197.14 164.13 196.62 164.15 195.94C164.15 195.47 164.08 195.09 163.94 194.78C163.8 194.47 163.62 194.24 163.4 194.09C163.18 193.94 162.95 193.86 162.7 193.86C162.32 193.86 161.98 194.04 161.67 194.4C161.36 194.76 161.2 195.31 161.18 196.04C161.18 196.48 161.25 196.85 161.38 197.15C161.52 197.44 161.69 197.66 161.9 197.81C162.11 197.96 162.34 198.03 162.58 198.03L162.6 198.02Z" fill="#F5A325"/>
<path d="M171.54 204.05C171.14 204.05 170.76 203.99 170.4 203.88C170.04 203.77 169.73 203.59 169.5 203.35C169.26 203.11 169.12 202.8 169.09 202.43C169.04 201.74 168.97 200.49 168.88 198.68C168.79 196.87 168.75 195.24 168.75 193.78C168.75 192.68 168.79 191.91 168.88 191.45C168.99 191.12 169.29 190.85 169.78 190.66C170.27 190.47 170.81 190.37 171.39 190.37C171.86 190.37 172.29 190.44 172.7 190.59C173.11 190.74 173.4 190.98 173.57 191.3V191.27C174.14 190.68 174.85 190.38 175.7 190.38C176.31 190.38 176.85 190.51 177.33 190.78C177.8 191.05 178.21 191.4 178.55 191.85C178.89 192.3 179.15 192.8 179.32 193.35C179.49 193.9 179.59 194.47 179.59 195.04C179.59 195.58 179.51 196.1 179.34 196.6C179.17 197.1 178.91 197.55 178.55 197.95C178.2 198.35 177.74 198.67 177.19 198.9C176.64 199.14 175.97 199.25 175.19 199.25C174.8 199.25 174.39 199.22 173.94 199.15C173.97 200.4 174.01 201.56 174.05 202.63C174.05 202.94 173.93 203.19 173.69 203.4C173.45 203.61 173.14 203.77 172.76 203.88C172.38 203.99 171.99 204.05 171.57 204.05H171.54ZM174.4 196.58C174.68 196.58 174.9 196.52 175.08 196.39C175.26 196.26 175.39 196.09 175.47 195.89C175.55 195.69 175.6 195.48 175.6 195.26C175.6 194.96 175.52 194.69 175.37 194.45C175.22 194.21 175.01 194.09 174.74 194.09C174.47 194.09 174.16 194.24 173.79 194.55L173.84 196.5C174.05 196.56 174.24 196.59 174.4 196.59V196.58Z" fill="#F5A325"/>
<path d="M185.44 201.97C184.56 201.97 183.8 201.81 183.14 201.48C182.49 201.15 181.94 200.72 181.5 200.16C181.06 199.61 180.74 198.99 180.52 198.3C180.3 197.61 180.2 196.91 180.2 196.18C180.2 195.45 180.31 194.74 180.53 194.05C180.75 193.36 181.08 192.73 181.51 192.18C181.95 191.63 182.49 191.18 183.15 190.86C183.8 190.53 184.57 190.37 185.44 190.37C186.31 190.37 187.1 190.53 187.76 190.86C188.42 191.19 188.97 191.62 189.41 192.17C189.85 192.71 190.18 193.33 190.4 194.02C190.62 194.71 190.73 195.41 190.73 196.13C190.73 196.85 190.62 197.57 190.4 198.26C190.18 198.96 189.85 199.58 189.4 200.14C188.96 200.7 188.41 201.14 187.75 201.47C187.09 201.8 186.32 201.97 185.44 201.97ZM185.46 198.02C185.85 198.02 186.2 197.84 186.51 197.49C186.82 197.14 186.99 196.62 187.01 195.94C187.01 195.47 186.94 195.09 186.8 194.78C186.66 194.47 186.48 194.24 186.26 194.09C186.04 193.94 185.81 193.86 185.56 193.86C185.18 193.86 184.84 194.04 184.53 194.4C184.22 194.76 184.06 195.31 184.04 196.04C184.04 196.48 184.11 196.85 184.24 197.15C184.38 197.44 184.55 197.66 184.76 197.81C184.97 197.96 185.2 198.03 185.44 198.03L185.46 198.02ZM185.2 189.08C185.01 189.08 184.83 189.01 184.66 188.87C184.48 188.73 184.34 188.56 184.23 188.36C184.12 188.16 184.06 187.97 184.06 187.8C184.06 187.66 184.11 187.55 184.2 187.45C184.75 186.95 185.17 186.54 185.46 186.21C185.75 185.88 186.15 185.5 186.64 185.07C186.73 185 186.83 184.97 186.94 184.97C187.13 184.97 187.33 185.06 187.54 185.23C187.75 185.4 187.93 185.6 188.07 185.83C188.21 186.06 188.29 186.26 188.29 186.42C188.29 186.58 188.05 186.89 187.56 187.33C186.91 187.92 186.24 188.47 185.56 188.97C185.44 189.05 185.32 189.09 185.2 189.09V189.08Z" fill="#F5A325"/>
<path d="M195.59 201.97C194.4 201.97 193.33 201.76 192.38 201.34C192.05 201.17 191.8 200.89 191.64 200.49C191.47 200.09 191.39 199.66 191.39 199.2C191.39 198.81 191.45 198.44 191.57 198.09C191.69 197.74 191.87 197.45 192.1 197.22C192.34 197 192.63 196.88 192.99 196.88C193.08 196.88 193.17 196.88 193.27 196.91C193.37 196.93 193.53 196.97 193.75 197.03C194.04 197.11 194.37 197.19 194.74 197.28C195.11 197.37 195.45 197.41 195.76 197.41C195.95 197.41 196.12 197.38 196.27 197.32C196.42 197.26 196.5 197.16 196.52 197.01C196.52 196.91 196.41 196.83 196.19 196.75C195.97 196.68 195.68 196.6 195.34 196.52C194.95 196.43 194.53 196.31 194.07 196.17C193.62 196.03 193.18 195.85 192.77 195.62C192.36 195.39 192.02 195.11 191.75 194.77C191.48 194.43 191.35 194 191.35 193.49V193.26C191.43 192.59 191.75 192.04 192.31 191.62C192.87 191.19 193.57 190.88 194.41 190.68C195.25 190.48 196.1 190.38 196.98 190.38C198.03 190.38 198.98 190.52 199.82 190.79C200.67 191.06 201.19 191.46 201.39 191.97C201.44 192.13 201.47 192.32 201.47 192.54C201.47 192.79 201.44 193.07 201.37 193.36C201.31 193.65 201.21 193.93 201.09 194.19C200.97 194.45 200.81 194.66 200.64 194.83C200.46 195 200.25 195.08 200.02 195.08C199.87 195.08 199.67 195.03 199.41 194.94C199.15 194.85 198.87 194.75 198.57 194.63C198.27 194.51 197.98 194.41 197.71 194.31C197.44 194.22 197.23 194.17 197.07 194.16C196.94 194.16 196.84 194.18 196.78 194.22C196.72 194.26 196.69 194.32 196.69 194.38C196.69 194.5 196.79 194.62 196.98 194.73C197.3 194.89 197.67 195.05 198.1 195.2C198.58 195.36 199.06 195.56 199.53 195.8C200 196.04 200.39 196.36 200.71 196.76C201.03 197.16 201.19 197.69 201.21 198.35C201.21 198.97 201.05 199.51 200.72 199.97C200.39 200.43 199.96 200.8 199.43 201.09C198.89 201.38 198.29 201.6 197.63 201.74C196.97 201.88 196.29 201.95 195.61 201.95L195.59 201.97Z" fill="#F5A325"/>
<path d="M204.53 193.22C203.75 193.04 203.13 192.7 202.67 192.18C202.22 191.67 201.99 191.18 201.99 190.73C201.99 190.44 202.08 190.21 202.27 190.03C202.45 189.85 202.75 189.75 203.14 189.74C203.36 189.74 203.58 189.81 203.81 189.95C204.04 190.09 204.24 190.31 204.43 190.62C204.92 189.84 205.49 189.45 206.15 189.45C206.52 189.45 206.8 189.55 206.98 189.74C207.16 189.93 207.26 190.17 207.26 190.45C207.26 190.76 207.16 191.09 206.95 191.45C206.75 191.81 206.44 192.15 206.04 192.46C205.64 192.78 205.13 193.03 204.53 193.23V193.22ZM204.38 202.07C203.72 202.07 203.23 201.98 202.92 201.8C202.61 201.62 202.44 201.29 202.41 200.82C202.35 200 202.32 199.12 202.32 198.18C202.32 196.95 202.37 195.74 202.46 194.56C202.48 194.37 202.67 194.2 203.04 194.06C203.41 193.92 203.94 193.84 204.65 193.84C205.36 193.84 205.9 193.9 206.28 194.03C206.66 194.15 206.86 194.34 206.86 194.58L206.88 195.47C206.91 196.36 206.92 197.37 206.92 198.51C206.92 199.31 206.91 200.15 206.88 201.02C206.88 201.34 206.67 201.6 206.27 201.79C205.87 201.98 205.24 202.08 204.39 202.08L204.38 202.07Z" fill="#F5A325"/>
<path d="M212.8 202.1C212.02 202.1 211.3 201.97 210.66 201.7C210.02 201.43 209.5 201.01 209.12 200.45C208.84 200.01 208.62 199.5 208.47 198.91C208.32 198.32 208.21 197.65 208.16 196.9C208.11 196.15 208.08 195.34 208.08 194.45C208.08 193.23 208.1 191.97 208.15 190.68C208.18 190.24 208.39 189.97 208.77 189.88C209.12 189.79 209.49 189.74 209.9 189.74H210.27C210.74 189.74 211.14 189.76 211.46 189.81C212.16 189.94 212.53 190.25 212.57 190.74C212.58 191.05 212.59 191.38 212.6 191.73C212.6 192.08 212.62 192.51 212.63 193.01C212.91 193.01 213.22 193.01 213.55 192.99H213.71C213.93 192.99 214.11 193.06 214.26 193.2C214.4 193.34 214.51 193.52 214.58 193.73C214.65 193.94 214.69 194.18 214.69 194.42C214.69 194.78 214.6 195.12 214.43 195.42C214.26 195.73 214 195.89 213.66 195.92H213.43C213.07 195.92 212.74 195.91 212.44 195.87V196.15V196.79V197.61C212.44 197.92 212.44 198.14 212.46 198.28C212.51 198.51 212.57 198.68 212.66 198.78C212.75 198.88 212.84 198.93 212.94 198.93C213.1 198.93 213.24 198.84 213.38 198.67C213.52 198.5 213.61 198.3 213.66 198.06C213.71 197.82 213.89 197.67 214.2 197.59C214.52 197.52 214.87 197.48 215.26 197.48H215.62C215.78 197.48 215.93 197.48 216.07 197.51C216.21 197.54 216.33 197.61 216.44 197.71C216.54 197.81 216.62 197.97 216.67 198.18C216.74 198.5 216.77 198.79 216.77 199.06C216.77 199.59 216.66 200.05 216.43 200.43C216.2 200.81 215.9 201.13 215.52 201.38C215.14 201.63 214.72 201.81 214.24 201.93C213.76 202.05 213.28 202.11 212.79 202.11L212.8 202.1Z" fill="#F5A325"/>
<path d="M222.19 201.97C221.31 201.97 220.55 201.81 219.89 201.48C219.24 201.15 218.69 200.72 218.25 200.16C217.81 199.61 217.49 198.99 217.27 198.3C217.05 197.61 216.95 196.91 216.95 196.18C216.95 195.45 217.06 194.74 217.28 194.05C217.5 193.36 217.83 192.73 218.26 192.18C218.7 191.63 219.24 191.18 219.9 190.86C220.55 190.53 221.32 190.37 222.19 190.37C223.06 190.37 223.85 190.53 224.51 190.86C225.17 191.19 225.72 191.62 226.16 192.17C226.6 192.71 226.93 193.33 227.15 194.02C227.37 194.71 227.48 195.41 227.48 196.13C227.48 196.85 227.37 197.57 227.15 198.26C226.93 198.96 226.6 199.58 226.15 200.14C225.71 200.7 225.16 201.14 224.5 201.47C223.84 201.8 223.07 201.97 222.19 201.97ZM222.2 198.02C222.59 198.02 222.94 197.84 223.25 197.49C223.56 197.14 223.73 196.62 223.75 195.94C223.75 195.47 223.68 195.09 223.54 194.78C223.4 194.47 223.22 194.24 223 194.09C222.78 193.94 222.55 193.86 222.3 193.86C221.92 193.86 221.58 194.04 221.27 194.4C220.96 194.76 220.8 195.31 220.78 196.04C220.78 196.48 220.85 196.85 220.98 197.15C221.12 197.44 221.29 197.66 221.5 197.81C221.71 197.96 221.94 198.03 222.18 198.03L222.2 198.02Z" fill="#F5A325"/>
<path d="M238.08 201.96C237.11 201.96 236.27 201.8 235.55 201.48C234.83 201.16 234.24 200.74 233.76 200.2C233.28 199.67 232.93 199.06 232.7 198.39C232.47 197.72 232.35 197.03 232.35 196.32C232.35 195.32 232.57 194.37 233.01 193.46C233.45 192.55 234.1 191.81 234.97 191.24C235.84 190.67 236.91 190.35 238.19 190.3C239.04 190.3 239.79 190.5 240.45 190.91C241.11 191.32 241.63 191.86 242.01 192.55C242.39 193.23 242.58 193.99 242.58 194.83C242.58 194.99 242.58 195.16 242.55 195.32C242.52 195.6 242.41 195.85 242.22 196.05C242.03 196.25 241.79 196.37 241.5 196.39C241.09 196.42 240.68 196.43 240.26 196.43C239.75 196.43 239.23 196.42 238.72 196.4C238.2 196.38 237.69 196.37 237.18 196.37C236.9 196.37 236.68 196.43 236.53 196.55C236.38 196.67 236.3 196.81 236.3 196.96C236.3 197.1 236.36 197.25 236.49 197.38C236.62 197.52 236.82 197.63 237.09 197.73C237.36 197.82 237.7 197.87 238.12 197.87C238.58 197.87 239.06 197.81 239.57 197.68C240.08 197.55 240.56 197.42 241 197.27H241.04C241.17 197.27 241.34 197.37 241.55 197.6C241.76 197.82 241.94 198.11 242.1 198.44C242.26 198.78 242.35 199.12 242.35 199.46C242.35 199.76 242.26 200.03 242.08 200.28C241.6 200.85 240.99 201.27 240.24 201.55C239.49 201.82 238.78 201.96 238.09 201.96H238.08ZM237.05 194.28C237.52 194.26 237.99 194.25 238.46 194.25H239.31V194.23C239.31 193.84 239.19 193.54 238.95 193.33C238.71 193.12 238.45 193.01 238.16 193.01C237.89 193.01 237.64 193.11 237.42 193.32C237.2 193.53 237.08 193.84 237.05 194.28Z" fill="#9CCEA6"/>
<path d="M255.81 201.97C255.35 201.97 254.93 201.92 254.55 201.82C254.17 201.72 253.93 201.57 253.84 201.37C253.81 201.24 253.79 201.11 253.78 200.98V200.84C252.92 201.42 251.95 201.72 250.87 201.73C250.11 201.73 249.47 201.56 248.96 201.23C248.45 200.9 248.07 200.46 247.81 199.94C247.55 199.42 247.42 198.86 247.42 198.28C247.42 197.74 247.53 197.21 247.76 196.71C247.99 196.21 248.33 195.78 248.79 195.43C249.4 194.97 250.23 194.74 251.27 194.74C251.85 194.74 252.41 194.8 252.95 194.93C252.63 194.6 252.29 194.36 251.94 194.22C251.59 194.08 251.22 194.01 250.85 194.01C250.37 194.01 249.85 194.09 249.32 194.25C249.22 194.27 249.13 194.28 249.04 194.28C248.79 194.28 248.57 194.19 248.4 194.01C248.23 193.83 248.1 193.6 248.01 193.32C247.92 193.04 247.88 192.75 247.88 192.46C247.88 192.11 247.94 191.8 248.05 191.52C248.16 191.24 248.34 191.06 248.57 190.97C249.9 190.55 251.09 190.35 252.12 190.35C254.09 190.35 255.56 191.06 256.54 192.47C257.46 193.79 257.92 195.65 257.92 198.05C257.92 199.08 257.83 200.19 257.66 201.37C257.6 201.57 257.38 201.71 257.02 201.82C256.65 201.92 256.25 201.97 255.8 201.97H255.81ZM252.4 198.43C252.72 198.43 253.15 198.33 253.68 198.14C253.66 197.44 253.65 197.01 253.65 196.85C253.52 196.83 253.39 196.82 253.27 196.82C252.92 196.82 252.62 196.88 252.37 196.99C252.12 197.1 251.93 197.24 251.79 197.41C251.66 197.57 251.59 197.73 251.59 197.89C251.59 198.03 251.65 198.16 251.78 198.27C251.91 198.38 252.11 198.43 252.39 198.43H252.4Z" fill="#F3A5BA"/>
<path d="M261.53 202.02C261.15 202.02 260.78 201.96 260.43 201.85C260.08 201.74 259.79 201.56 259.56 201.32C259.33 201.08 259.2 200.77 259.17 200.4C258.99 197.77 258.9 195.6 258.9 193.9C258.9 192.92 258.95 192.18 259.04 191.69C259.15 191.34 259.46 191.07 259.97 190.86C260.48 190.65 261.02 190.54 261.59 190.54C262.1 190.54 262.56 190.64 262.97 190.85C263.38 191.06 263.61 191.39 263.67 191.85C263.72 192.33 263.76 192.72 263.77 193.01C263.88 192.71 264.06 192.41 264.32 192.11C264.58 191.81 264.87 191.55 265.2 191.34C265.53 191.13 265.85 191.02 266.15 191.02C266.79 191.04 267.32 191.24 267.73 191.62C268.15 192 268.47 192.47 268.69 193.06C269.1 192.48 269.56 192 270.07 191.61C270.58 191.22 271.02 191.03 271.38 191.03C272.64 191.07 273.51 191.85 274.01 193.37C274.39 194.52 274.58 196 274.58 197.8C274.58 198.64 274.56 199.38 274.51 200L274.49 200.42C274.48 201.01 274.31 201.42 274 201.64C273.69 201.86 273.15 201.98 272.39 201.98C272.01 201.98 271.68 201.95 271.38 201.89C271.08 201.83 270.84 201.7 270.67 201.49C270.5 201.28 270.4 200.97 270.38 200.55C270.33 199.13 270.31 197.79 270.31 196.53C270.31 196.22 270.25 195.97 270.12 195.79C269.99 195.61 269.85 195.52 269.7 195.52C269.56 195.52 269.44 195.61 269.32 195.78C269.21 195.96 269.15 196.24 269.15 196.62C269.16 197.24 269.18 197.81 269.21 198.34C269.25 198.93 269.27 199.47 269.27 199.98V200.4C269.25 200.99 269.08 201.4 268.77 201.62C268.45 201.85 267.92 201.96 267.16 201.96C266.78 201.96 266.45 201.93 266.15 201.87C265.85 201.81 265.61 201.68 265.44 201.47C265.27 201.26 265.17 200.95 265.15 200.53C265.12 199.45 265.09 198.11 265.08 196.51C265.07 196.21 265 195.99 264.89 195.85C264.77 195.71 264.64 195.64 264.49 195.64C264.32 195.64 264.16 195.72 264.01 195.88C263.86 196.04 263.79 196.27 263.79 196.56V196.65C263.84 197.71 263.87 198.8 263.88 199.92V200.61C263.88 200.9 263.77 201.15 263.54 201.35C263.31 201.56 263.01 201.72 262.65 201.83C262.29 201.94 261.91 201.99 261.52 201.99L261.53 202.02Z" fill="#F3A5BA"/>
<path d="M280.5 201.97C279.62 201.97 278.86 201.81 278.2 201.48C277.55 201.15 277 200.72 276.56 200.16C276.12 199.61 275.8 198.99 275.58 198.3C275.36 197.61 275.26 196.91 275.26 196.18C275.26 195.45 275.37 194.74 275.59 194.05C275.81 193.36 276.14 192.73 276.57 192.18C277.01 191.63 277.55 191.18 278.21 190.86C278.86 190.53 279.63 190.37 280.5 190.37C281.37 190.37 282.16 190.53 282.82 190.86C283.48 191.19 284.03 191.62 284.47 192.17C284.91 192.71 285.24 193.33 285.46 194.02C285.68 194.71 285.79 195.41 285.79 196.13C285.79 196.85 285.68 197.57 285.46 198.26C285.24 198.96 284.91 199.58 284.46 200.14C284.02 200.7 283.47 201.14 282.81 201.47C282.15 201.8 281.38 201.97 280.5 201.97ZM280.51 198.02C280.9 198.02 281.25 197.84 281.56 197.49C281.87 197.14 282.04 196.62 282.06 195.94C282.06 195.47 281.99 195.09 281.85 194.78C281.71 194.47 281.53 194.24 281.31 194.09C281.09 193.94 280.86 193.86 280.61 193.86C280.23 193.86 279.89 194.04 279.58 194.4C279.27 194.76 279.11 195.31 279.09 196.04C279.09 196.48 279.16 196.85 279.29 197.15C279.43 197.44 279.6 197.66 279.81 197.81C280.02 197.96 280.25 198.03 280.49 198.03L280.51 198.02Z" fill="#F3A5BA"/>
<path d="M289.38 202.02C288.99 202.02 288.61 201.96 288.24 201.85C287.87 201.74 287.57 201.56 287.33 201.32C287.09 201.08 286.95 200.77 286.92 200.4C286.73 197.82 286.63 195.65 286.63 193.9C286.63 192.92 286.68 192.18 286.78 191.69C286.9 191.34 287.22 191.07 287.74 190.86C288.27 190.65 288.83 190.54 289.43 190.54C289.96 190.54 290.44 190.64 290.86 190.85C291.28 191.05 291.53 191.39 291.6 191.85C291.65 192.33 291.69 192.72 291.7 193.01C291.86 192.45 292.1 191.99 292.42 191.64C292.74 191.29 293.11 191.02 293.51 190.86C293.91 190.7 294.33 190.61 294.75 190.61C295.38 190.61 295.94 190.79 296.42 191.14C296.9 191.49 297.15 191.98 297.18 192.61C297.18 193.15 297.03 193.7 296.72 194.27C296.41 194.84 296.03 195.32 295.58 195.71C295.13 196.1 294.68 196.3 294.23 196.3C293.78 196.3 293.42 196.08 293.12 195.64C292.97 195.44 292.77 195.35 292.53 195.35C292.4 195.35 292.28 195.39 292.15 195.46C292.03 195.54 291.92 195.66 291.85 195.83C291.77 196 291.73 196.24 291.73 196.53V196.68C291.76 197.28 291.78 197.92 291.8 198.61L291.83 200.64C291.83 200.93 291.71 201.18 291.47 201.38C291.23 201.59 290.92 201.75 290.54 201.86C290.16 201.97 289.77 202.02 289.35 202.02H289.38Z" fill="#F3A5BA"/>
<path d="M16.3198 102.37L61.4998 105.31" stroke="#ADD6F1" stroke-width="2" stroke-miterlimit="10"/>
<path d="M51.1899 77.25L72.9899 89.12" stroke="#FEC931" stroke-width="2" stroke-miterlimit="10"/>
<path d="M56.9702 45.96L87.7302 72.54" stroke="#9CCEA6" stroke-width="2" stroke-miterlimit="10"/>
<path d="M89.96 37.42L101.74 52.2" stroke="#F5A325" stroke-width="2" stroke-miterlimit="10"/>
<path d="M105.24 10.44L118.8 42.13" stroke="#F3A5BA" stroke-width="2" stroke-miterlimit="10"/>
<path d="M163.95 0.169998L156.78 40.55" stroke="#B0DEED" stroke-width="2" stroke-miterlimit="10"/>
<path d="M135.56 22.05L138.08 38.88" stroke="#9CCEA6" stroke-width="2" stroke-miterlimit="10"/>
<path d="M186.85 28.33L179.47 46.5" stroke="#F3987D" stroke-width="2" stroke-miterlimit="10"/>
<path d="M193.71 65.11L232.83 33.96" stroke="#ADD6F1" stroke-width="2" stroke-miterlimit="10"/>
<path d="M213.52 84.25L234.71 78.06" stroke="#9CCEA6" stroke-width="2" stroke-miterlimit="10"/>
<path d="M226.5 110.86L279.17 108.53" stroke="#FEC931" stroke-width="2" stroke-miterlimit="10"/>
<path d="M119.2 91.21C125.23 96.01 132.87 98.65 140.61 98.25C148.35 97.85 155.45 94.66 160.93 89.42C162.33 88.08 160.21 85.96 158.81 87.3C153.91 91.98 147.39 94.89 140.61 95.25C133.83 95.61 126.74 93.4 121.32 89.09C119.82 87.9 117.69 90.01 119.2 91.21Z" fill="white"/>
<path d="M129.23 81.16C130.196 81.16 130.98 80.3765 130.98 79.41C130.98 78.4435 130.196 77.66 129.23 77.66C128.263 77.66 127.48 78.4435 127.48 79.41C127.48 80.3765 128.263 81.16 129.23 81.16Z" fill="white" stroke="white" stroke-miterlimit="10"/>
<path d="M151.15 80.81C152.116 80.81 152.9 80.0265 152.9 79.06C152.9 78.0935 152.116 77.31 151.15 77.31C150.183 77.31 149.4 78.0935 149.4 79.06C149.4 80.0265 150.183 80.81 151.15 80.81Z" fill="white" stroke="white" stroke-miterlimit="10"/>
</g>
<defs>
<clipPath id="clip0_8_34">
<rect width="300.16" height="204.05" fill="white"/>
</clipPath>
</defs>
</svg>
