<svg width="125" height="124" viewBox="0 0 125 124" fill="none" xmlns="http://www.w3.org/2000/svg">
<path d="M62.5586 39.7188C50.1562 39.6801 40.0781 49.6388 40.0391 61.9419C40 74.2451 50.0391 84.2426 62.4414 84.2813C74.8438 84.3201 84.9219 74.3613 84.9609 62.0582C85 49.7551 74.9609 39.7576 62.5586 39.7188ZM62.4414 47.5463C70.4883 47.5076 77.0312 53.9594 77.0703 61.9419C77.1094 69.9244 70.6055 76.4151 62.5586 76.4538C54.5117 76.4926 47.9687 70.0407 47.9297 62.0582C47.8906 54.0757 54.3945 47.5851 62.4414 47.5463ZM80.6836 38.8082C80.6836 35.9407 83.0273 33.6157 85.918 33.6157C88.8086 33.6157 91.1523 35.9407 91.1523 38.8082C91.1523 41.6757 88.8086 44.0007 85.918 44.0007C83.0273 44.0007 80.6836 41.6757 80.6836 38.8082ZM106.016 44.0782C105.684 37.1226 104.082 30.9613 98.9453 25.8851C93.8281 20.8088 87.6172 19.2201 80.6055 18.8713C73.3789 18.4644 51.7188 18.4644 44.4922 18.8713C37.5 19.2007 31.2891 20.7894 26.1523 25.8657C21.0156 30.9419 19.4336 37.1032 19.082 44.0588C18.6719 51.2276 18.6719 72.7144 19.082 79.8832C19.4141 86.8388 21.0156 93.0001 26.1523 98.0763C31.2891 103.153 37.4805 104.741 44.4922 105.09C51.7188 105.497 73.3789 105.497 80.6055 105.09C87.6172 104.761 93.8281 103.172 98.9453 98.0763C104.062 93.0001 105.664 86.8388 106.016 79.8832C106.426 72.7144 106.426 51.2469 106.016 44.0782ZM96.6797 87.5751C95.1562 91.3726 92.207 94.2982 88.3594 95.8288C82.5977 98.0957 68.9258 97.5726 62.5586 97.5726C56.1914 97.5726 42.5 98.0763 36.7578 95.8288C32.9297 94.3176 29.9805 91.3919 28.4375 87.5751C26.1523 81.8594 26.6797 68.2969 26.6797 61.9807C26.6797 55.6644 26.1719 42.0826 28.4375 36.3863C29.9609 32.5888 32.9102 29.6632 36.7578 28.1326C42.5195 25.8657 56.1914 26.3888 62.5586 26.3888C68.9258 26.3888 82.6172 25.8851 88.3594 28.1326C92.1875 29.6438 95.1367 32.5694 96.6797 36.3863C98.9648 42.1019 98.4375 55.6644 98.4375 61.9807C98.4375 68.2969 98.9648 81.8788 96.6797 87.5751Z" fill="white"/>
</svg>
