<svg width="133" height="117" viewBox="0 0 133 117" fill="none" xmlns="http://www.w3.org/2000/svg">
<path d="M110.501 49.6681C101.907 49.6875 93.5086 47.0331 86.5164 42.0731V76.6963C86.5164 83.1094 84.5437 89.3675 80.8523 94.6375C77.1609 99.9075 71.9461 103.938 65.8914 106.185C59.8367 108.433 53.2351 108.801 46.9656 107.212C40.6961 105.623 35.0711 102.194 30.8133 97.3694C26.5555 92.545 23.9187 86.5194 23.1961 80.145C22.4734 73.7706 23.7625 67.3381 26.8289 61.7C29.8953 56.0619 34.6414 51.4894 40.4226 48.5831C46.2039 45.6769 52.7078 44.6113 59.114 45.4831V62.9013C56.1844 61.9906 53.0398 62.01 50.1297 62.9788C47.2195 63.9475 44.6804 65.8075 42.9031 68.2681C41.1258 70.7288 40.1687 73.7125 40.1883 76.7738C40.2078 79.835 41.2039 82.78 43.0203 85.2406C44.8367 87.7013 47.3953 89.5225 50.325 90.4525C53.2547 91.3825 56.3992 91.3825 59.3094 90.4331C62.2195 89.4837 64.7781 87.6431 66.575 85.1825C68.3719 82.7219 69.3484 79.7381 69.3484 76.6963V9H86.5359C86.5164 10.4338 86.6531 11.8869 86.907 13.3012C87.5125 16.4594 88.743 19.4819 90.5594 22.1556C92.3758 24.8294 94.7195 27.1156 97.4344 28.8594C101.321 31.3975 105.872 32.7538 110.52 32.7538V49.6875L110.501 49.6681Z" fill="white"/>
</svg>
