<svg width="43" height="39" viewBox="0 0 43 39" fill="none" xmlns="http://www.w3.org/2000/svg">
<path d="M15.3571 8.36759C15.3571 5.7303 18.1118 3.58611 21.5 3.58611C24.8882 3.58611 27.6429 5.7303 27.6429 8.36759V11.9537H15.3571V8.36759ZM10.75 11.9537H4.60714C2.06362 11.9537 0 13.56 0 15.5398V31.0796C0 35.0393 4.12723 38.2518 9.21429 38.2518H33.7857C38.8728 38.2518 43 35.0393 43 31.0796V15.5398C43 13.56 40.9364 11.9537 38.3929 11.9537H32.25V8.36759C32.25 3.743 27.4413 0 21.5 0C15.5587 0 10.75 3.743 10.75 8.36759V11.9537ZM13.0536 15.5398C14.3301 15.5398 15.3571 16.3392 15.3571 17.3329C15.3571 18.3265 14.3301 19.1259 13.0536 19.1259C11.777 19.1259 10.75 18.3265 10.75 17.3329C10.75 16.3392 11.777 15.5398 13.0536 15.5398ZM27.6429 17.3329C27.6429 16.3392 28.6699 15.5398 29.9464 15.5398C31.223 15.5398 32.25 16.3392 32.25 17.3329C32.25 18.3265 31.223 19.1259 29.9464 19.1259C28.6699 19.1259 27.6429 18.3265 27.6429 17.3329Z" fill="#F4A226"/>
</svg>
