<svg width="34" height="31" viewBox="0 0 34 31" fill="none" xmlns="http://www.w3.org/2000/svg">
<path d="M27.6264 12.2855C27.6264 14.9966 26.6369 17.5009 24.97 19.5327L33.3774 27.0163C34.2075 27.7546 34.2075 28.9536 33.3774 29.6919C32.5473 30.4302 31.1992 30.4302 30.3691 29.6919L21.9616 22.2084C19.6771 23.6909 16.8614 24.571 13.8132 24.571C6.18272 24.571 0 19.072 0 12.2855C0 5.49894 6.18272 0 13.8132 0C21.4436 0 27.6264 5.49894 27.6264 12.2855ZM13.8132 20.7908C19.0927 20.7908 23.3761 16.9811 23.3761 12.2855C23.3761 7.58983 19.0927 3.78015 13.8132 3.78015C8.53362 3.78015 4.25021 7.58983 4.25021 12.2855C4.25021 16.9811 8.53362 20.7908 13.8132 20.7908Z" fill="#9CCEA6"/>
</svg>
