<svg width="125" height="124" viewBox="0 0 125 124" fill="none" xmlns="http://www.w3.org/2000/svg">
<path d="M93.1445 31.2132C84.9609 23.0757 74.0625 18.6001 62.4805 18.6001C38.5742 18.6001 19.1211 37.8976 19.1211 61.6126C19.1211 69.1882 21.1133 76.5895 24.9023 83.1189L18.75 105.4L41.7383 99.4132C48.0664 102.843 55.1953 104.644 62.4609 104.644H62.4805C86.3672 104.644 106.25 85.347 106.25 61.632C106.25 50.1426 101.328 39.3507 93.1445 31.2132ZM62.4805 97.3982C55.9961 97.3982 49.6484 95.6739 44.1211 92.4189L42.8125 91.6439L29.1797 95.1895L32.8125 81.9951L31.9531 80.6389C28.3398 74.9426 26.4453 68.3745 26.4453 61.6126C26.4453 41.9082 42.6172 25.8657 62.5 25.8657C72.1289 25.8657 81.1719 29.5857 87.9688 36.3476C94.7656 43.1095 98.9453 52.0801 98.9258 61.632C98.9258 81.3557 82.3438 97.3982 62.4805 97.3982ZM82.2461 70.622C81.1719 70.0795 75.8398 67.4832 74.8438 67.1345C73.8477 66.7663 73.125 66.592 72.4023 67.677C71.6797 68.762 69.6094 71.1645 68.9648 71.9007C68.3398 72.6176 67.6953 72.7145 66.6211 72.172C60.2539 69.0139 56.0742 66.5339 51.875 59.3845C50.7617 57.4857 52.9883 57.6214 55.0586 53.5139C55.4102 52.797 55.2344 52.177 54.9609 51.6345C54.6875 51.092 52.5195 45.8026 51.6211 43.652C50.7422 41.5595 49.8438 41.8501 49.1797 41.8113C48.5547 41.7726 47.832 41.7726 47.1094 41.7726C46.3867 41.7726 45.2148 42.0438 44.2187 43.1095C43.2227 44.1945 40.4297 46.7907 40.4297 52.0801C40.4297 57.3695 44.3164 62.4845 44.8438 63.2014C45.3906 63.9182 52.4805 74.7682 63.3594 79.4376C70.2344 82.3826 72.9297 82.6345 76.3672 82.1307C78.457 81.8207 82.7734 79.5345 83.6719 77.0157C84.5703 74.497 84.5703 72.3464 84.2969 71.9007C84.043 71.4164 83.3203 71.1451 82.2461 70.622Z" fill="white"/>
</svg>
